<?xml version="1.0" standalone="no"?>
<!DOCTYPE svg PUBLIC "-//W3C//DTD SVG 20010904//EN"
 "http://www.w3.org/TR/2001/REC-SVG-20010904/DTD/svg10.dtd">
<svg version="1.0" xmlns="http://www.w3.org/2000/svg"
 width="512.000000pt" height="512.000000pt" viewBox="0 0 512.000000 512.000000"
 preserveAspectRatio="xMidYMid meet">
<metadata>
Created by potrace 1.14, written by Peter Selinger 2001-2017
</metadata>
<g transform="translate(0.000000,512.000000) scale(0.100000,-0.100000)"
fill="#000000" stroke="none">
<path d="M3635 3794 c-174 -27 -289 -68 -409 -148 -196 -130 -329 -346 -386
-626 -43 -208 -50 -603 -15 -818 65 -404 291 -701 623 -822 270 -98 677 -75
937 54 102 51 198 125 250 193 l35 46 0 438 0 439 -440 0 -440 0 0 -125 0
-125 280 0 280 0 0 -274 0 -274 -42 -38 c-24 -20 -71 -50 -106 -65 -107 -50
-180 -63 -362 -63 -144 -1 -173 2 -230 21 -102 34 -159 70 -246 157 -118 119
-193 278 -225 481 -19 125 -16 556 6 679 57 328 194 513 435 588 62 19 96 23
200 22 194 -1 313 -46 418 -159 65 -69 95 -125 128 -235 l22 -75 160 -3 160
-2 -14 64 c-71 338 -274 558 -591 642 -79 20 -127 26 -248 29 -82 2 -163 1
-180 -1z"/>
<path d="M460 2560 l0 -1210 160 0 160 0 2 927 3 926 605 -926 605 -927 162 0
163 0 -2 1208 -3 1207 -157 3 -158 3 -2 -935 -3 -934 -609 934 -609 934 -158
0 -159 0 0 -1210z"/>
</g>
</svg>
